<svg width="10" height="11" viewBox="0 0 10 11" fill="none" xmlns="http://www.w3.org/2000/svg">
<path d="M5.11399 2.66637L5.43798 3.42419C5.45995 3.49009 5.52035 3.52853 5.58076 3.53402L6.40448 3.6109C6.58021 3.62737 6.6461 3.84154 6.5198 3.95686L5.89927 4.50052C5.84984 4.54445 5.82788 4.61035 5.84435 4.67075L6.02557 5.478C6.06401 5.64823 5.88279 5.78003 5.72903 5.69216L5.02063 5.26932C4.96572 5.23637 4.89433 5.23637 4.83941 5.26932L4.13101 5.69216C3.98274 5.78003 3.79603 5.64823 3.83447 5.478L4.01569 4.67075C4.03217 4.61035 4.0102 4.54445 3.96078 4.50052L3.34024 3.95686C3.20845 3.84154 3.27984 3.62737 3.45556 3.6109L4.27928 3.53402C4.34518 3.52853 4.4001 3.49009 4.42755 3.42968L4.75155 2.67186C4.81745 2.50712 5.0426 2.50712 5.11399 2.66637Z" stroke="#F0C932" stroke-width="0.549146" stroke-miterlimit="10" stroke-linecap="round" stroke-linejoin="round"/>
<path d="M8.66548 4.27243C8.67967 2.21009 7.01932 0.52673 4.95698 0.512537C2.89464 0.498344 1.21128 2.1587 1.19709 4.22103C1.18289 6.28337 2.84324 7.96674 4.90558 7.98093C6.96792 7.99512 8.65128 6.33477 8.66548 4.27243Z" stroke="#F0C932" stroke-width="0.549146" stroke-miterlimit="10" stroke-linecap="round" stroke-linejoin="round"/>
<path d="M4.42202 7.94366L3.49396 10.2775L2.31879 8.93212L0.545044 9.09687L1.72022 6.15344" stroke="#F0C932" stroke-width="0.549146" stroke-miterlimit="10" stroke-linecap="round" stroke-linejoin="round"/>
<path d="M5.4325 7.94366L6.36604 10.2775L7.53573 8.93212L9.31496 9.09687L8.1343 6.15344" stroke="#F0C932" stroke-width="0.549146" stroke-miterlimit="10" stroke-linecap="round" stroke-linejoin="round"/>
</svg>
